<svg xmlns="http://www.w3.org/2000/svg" xmlns:xlink="http://www.w3.org/1999/xlink" width="31" height="29" viewBox="0 0 31 29">
  <metadata><?xpacket begin="﻿" id="W5M0MpCehiHzreSzNTczkc9d"?>
<x:xmpmeta xmlns:x="adobe:ns:meta/" x:xmptk="Adobe XMP Core 5.6-c142 79.160924, 2017/07/13-01:06:39        ">
   <rdf:RDF xmlns:rdf="http://www.w3.org/1999/02/22-rdf-syntax-ns#">
      <rdf:Description rdf:about=""/>
   </rdf:RDF>
</x:xmpmeta>
                                                                                                    
                                                                                                    
                                                                                                    
                                                                                                    
                                                                                                    
                                                                                                    
                                                                                                    
                                                                                                    
                                                                                                    
                                                                                                    
                                                                                                    
                                                                                                    
                                                                                                    
                                                                                                    
                                                                                                    
                                                                                                    
                                                                                                    
                                                                                                    
                                                                                                    
                                                                                                    
                           
<?xpacket end="w"?></metadata>
<defs>
    <style>
      .cls-1 {
        fill-rule: evenodd;
        filter: url(#filter);
      }
    </style>
    <filter id="filter" x="397" y="594" width="31" height="29" filterUnits="userSpaceOnUse">
      <feFlood result="flood" flood-color="#adadad"/>
      <feComposite result="composite" operator="in" in2="SourceGraphic"/>
      <feBlend result="blend" in2="SourceGraphic"/>
    </filter>
  </defs>
  <path id="Forma_1" data-name="Forma 1" class="cls-1" d="M422.89,608.21a0.878,0.878,0,0,0-.893.89v12.152h-6.336V616.29a0.881,0.881,0,0,0-.861-0.873h-4.581a0.9,0.9,0,0,0-.909.873v4.962h-6.32V609.5a0.877,0.877,0,0,0-1.754,0v12.638a0.866,0.866,0,0,0,.861.859h8.122a0.866,0.866,0,0,0,.861-0.859v-4.962h2.827v4.962a0.874,0.874,0,0,0,.893.859h8.09a0.866,0.866,0,0,0,.861-0.859V609.1A0.871,0.871,0,0,0,422.89,608.21Zm4.857,0.693-7.05-7.044v-4.8a0.891,0.891,0,0,0-.91-0.886,0.87,0.87,0,0,0-.861.886V600.1l-5.815-5.821a0.857,0.857,0,0,0-.6-0.276,0.886,0.886,0,0,0-.634.276l-14.6,14.531a0.83,0.83,0,0,0,0,1.227,0.839,0.839,0,0,0,1.235,0l14-13.9,13.97,14.032a0.871,0.871,0,0,0,.634.227,0.989,0.989,0,0,0,.633-0.227A0.914,0.914,0,0,0,427.747,608.9Z" transform="translate(-397 -594)"/>
</svg>
