<svg xmlns="http://www.w3.org/2000/svg" xmlns:xlink="http://www.w3.org/1999/xlink" width="27" height="29" viewBox="0 0 27 29">
  <metadata><?xpacket begin="﻿" id="W5M0MpCehiHzreSzNTczkc9d"?>
<x:xmpmeta xmlns:x="adobe:ns:meta/" x:xmptk="Adobe XMP Core 5.6-c142 79.160924, 2017/07/13-01:06:39        ">
   <rdf:RDF xmlns:rdf="http://www.w3.org/1999/02/22-rdf-syntax-ns#">
      <rdf:Description rdf:about=""/>
   </rdf:RDF>
</x:xmpmeta>
                                                                                                    
                                                                                                    
                                                                                                    
                                                                                                    
                                                                                                    
                                                                                                    
                                                                                                    
                                                                                                    
                                                                                                    
                                                                                                    
                                                                                                    
                                                                                                    
                                                                                                    
                                                                                                    
                                                                                                    
                                                                                                    
                                                                                                    
                                                                                                    
                                                                                                    
                                                                                                    
                           
<?xpacket end="w"?></metadata>
<defs>
    <style>
      .cls-1 {
        fill-rule: evenodd;
        filter: url(#filter);
      }
    </style>
    <filter id="filter" x="401" y="773" width="27" height="29" filterUnits="userSpaceOnUse">
      <feFlood result="flood" flood-color="#adadad"/>
      <feComposite result="composite" operator="in" in2="SourceGraphic"/>
      <feBlend result="blend" in2="SourceGraphic"/>
    </filter>
  </defs>
  <path class="cls-1" d="M427.765,788.138l0.012-.011a0.514,0.514,0,0,0,.048-0.065c0.006-.006.006-0.012,0.012-0.018,0.011-.024.029-0.048,0.041-0.071a0.021,0.021,0,0,1,.006-0.012c0.012-.024.024-0.048,0.036-0.077a0.012,0.012,0,0,1,.006-0.012c0.012-.024.017-0.053,0.029-0.083,0-.006,0-0.012.006-0.012a0.4,0.4,0,0,0,.018-0.083,0.052,0.052,0,0,1,.006-0.029c0.006-.024.006-0.047,0.012-0.071a0.571,0.571,0,0,0,.006-0.1,0.56,0.56,0,0,0-.006-0.1,0.285,0.285,0,0,0-.012-0.071,0.054,0.054,0,0,0-.006-0.03c-0.006-.03-0.012-0.053-0.018-0.083,0-.006,0-0.012-0.006-0.012a0.484,0.484,0,0,0-.029-0.083,0.012,0.012,0,0,0-.006-0.012c-0.012-.023-0.024-0.053-0.036-0.076a0.021,0.021,0,0,0-.006-0.012,0.465,0.465,0,0,0-.041-0.071c-0.006-.006-0.006-0.012-0.012-0.018a0.61,0.61,0,0,0-.048-0.065l-0.012-.012a0.829,0.829,0,0,0-.071-0.077l-5.874-5.849a1.019,1.019,0,1,0-1.443,1.439l4.133,4.12H408.076a1.015,1.015,0,1,0,0,2.03h16.44l-4.1,4.091a1.017,1.017,0,0,0,1.438,1.438l5.838-5.819C427.718,788.186,427.741,788.162,427.765,788.138Zm-21.239-13.111h7.6a1.016,1.016,0,1,0,0-2.031h-7.6a5.53,5.53,0,0,0-5.53,5.511v17.978a5.529,5.529,0,0,0,5.53,5.511H414a1.015,1.015,0,1,0,0-2.03h-7.478a3.493,3.493,0,0,1-3.493-3.481V778.507A3.492,3.492,0,0,1,406.526,775.027Z" transform="translate(-401 -773)"/>
</svg>
