<svg xmlns="http://www.w3.org/2000/svg" xmlns:xlink="http://www.w3.org/1999/xlink" width="26.969" height="27" viewBox="0 0 26.969 27">
  <metadata><?xpacket begin="﻿" id="W5M0MpCehiHzreSzNTczkc9d"?>
<x:xmpmeta xmlns:x="adobe:ns:meta/" x:xmptk="Adobe XMP Core 5.6-c142 79.160924, 2017/07/13-01:06:39        ">
   <rdf:RDF xmlns:rdf="http://www.w3.org/1999/02/22-rdf-syntax-ns#">
      <rdf:Description rdf:about=""/>
   </rdf:RDF>
</x:xmpmeta>
                                                                                                    
                                                                                                    
                                                                                                    
                                                                                                    
                                                                                                    
                                                                                                    
                                                                                                    
                                                                                                    
                                                                                                    
                                                                                                    
                                                                                                    
                                                                                                    
                                                                                                    
                                                                                                    
                                                                                                    
                                                                                                    
                                                                                                    
                                                                                                    
                                                                                                    
                                                                                                    
                           
<?xpacket end="w"?></metadata>
<defs>
    <style>
      .cls-1 {
        fill-rule: evenodd;
        filter: url(#filter);
      }
    </style>
    <filter id="filter" x="401.031" y="504" width="26.969" height="27" filterUnits="userSpaceOnUse">
      <feFlood result="flood" flood-color="#adadad"/>
      <feComposite result="composite" operator="in" in2="SourceGraphic"/>
      <feBlend result="blend" in2="SourceGraphic"/>
    </filter>
  </defs>
  <path id="Forma_1" data-name="Forma 1" class="cls-1" d="M424.838,511.073a0.928,0.928,0,0,0-.929-0.791H418.57V508.1a4.086,4.086,0,1,0-8.172,0v2.185h-5.339a0.928,0.928,0,0,0-.929.791L401.02,529.9a0.912,0.912,0,0,0,.209.767,0.948,0.948,0,0,0,.719.326h25.1a0.943,0.943,0,0,0,.952-0.953,1.188,1.188,0,0,0-.047-0.3ZM412.3,508.1a2.182,2.182,0,1,1,4.364,0v2.185H412.3V508.1Zm-9.239,21.014,2.808-16.923H410.4v5.324a0.952,0.952,0,1,0,1.9,0v-5.324h4.364v5.324a0.952,0.952,0,1,0,1.9,0v-5.324H423.1l2.809,16.923H403.063Z" transform="translate(-401.031 -504)"/>
</svg>
